<svg xmlns="http://www.w3.org/2000/svg" xmlns:xlink="http://www.w3.org/1999/xlink" fill="none" version="1.1" width="28" height="28" viewBox="0 0 28 28"><defs><clipPath id="master_svg0_655_025060"><rect x="0" y="0" width="28" height="28" rx="0"/></clipPath><linearGradient x1="0.16505618393421173" y1="0" x2="0.25872056078428224" y2="1.0286266636413086" id="master_svg1_590_034527"><stop offset="0%" stop-color="#9482F8" stop-opacity="1"/><stop offset="100%" stop-color="#4277F3" stop-opacity="1"/></linearGradient><linearGradient x1="0.16505618393421173" y1="0" x2="0.2693044004593124" y2="1.0335605522878162" id="master_svg2_590_034527"><stop offset="0%" stop-color="#9482F8" stop-opacity="1"/><stop offset="100%" stop-color="#4277F3" stop-opacity="1"/></linearGradient><linearGradient x1="0.16505618393421173" y1="0" x2="0.3434819844629554" y2="1.0615235635729812" id="master_svg3_590_034527"><stop offset="0%" stop-color="#9482F8" stop-opacity="1"/><stop offset="100%" stop-color="#4277F3" stop-opacity="1"/></linearGradient></defs><g clip-path="url(#master_svg0_655_025060)"><g><path d="M0.56005859375,9.05109375L0.56005859375,25.62009375C0.56005859375,26.53709375,1.30205859375,27.28609375,2.21205859375,27.28609375L7.61605859375,27.28609375L7.61605859375,9.37109375C7.61605859375,8.26652475,6.72062859375,7.37109375,5.61605859375,7.37109375L2.2470585937500003,7.37109375C1.31605859375,7.37109375,0.56005859375,8.12709375,0.56005859375,9.05109375ZM4.55705859375,9.751093749999999C4.44505859375,9.63909375,4.30505859375,9.59009375,4.13005859375,9.59009375C4.0110585937500005,9.59009375,3.91305859375,9.61809375,3.82905859375,9.67409375C3.74505859375,9.73009375,3.68205859375,9.80009375,3.63305859375,9.89109375C3.58405859375,9.98209375,3.54905859375,10.08009375,3.52805859375,10.18509375C3.50705859375,10.29009375,3.50005859375,10.40209375,3.50005859375,10.50709375L2.73005859375,10.50709375C2.72305859375,10.27609375,2.75105859375,10.06609375,2.80705859375,9.87009375C2.87005859375,9.67409375,2.96105859375,9.49909375,3.08005859375,9.35209375C3.19905859375,9.20509375,3.35305859375,9.09309375,3.53505859375,9.00909375C3.71705859375,8.92509375,3.92705859375,8.88309375,4.16505859375,8.88309375C4.34705859375,8.88309375,4.52205859375,8.91109375,4.68305859375,8.96709375C4.85105859375,9.02309375,4.99105859375,9.10709375,5.11705859375,9.21209375C5.24305859375,9.31709375,5.34105859375,9.45009375,5.41105859375,9.60409375C5.48805859375,9.75809375,5.52305859375,9.93309375,5.52305859375,10.12909375C5.52305859375,10.33209375,5.48805859375,10.50709375,5.42505859375,10.64709375C5.36205859375,10.79409375,5.27805859375,10.92009375,5.17305859375,11.03209375C5.06805859375,11.14409375,4.94905859375,11.24909375,4.81605859375,11.34009375C4.68305859375,11.431093749999999,4.55005859375,11.52209375,4.41005859375,11.61309375C4.2770585937500005,11.70409375,4.14405859375,11.802093750000001,4.0110585937500005,11.90009375C3.88505859375,12.00509375,3.76605859375,12.12409375,3.66805859375,12.25709375L5.54405859375,12.25709375L5.54405859375,12.95709375L2.63905859375,12.95709375C2.63905859375,12.72609375,2.67405859375,12.523093750000001,2.73705859375,12.34809375C2.80005859375,12.180093750000001,2.89105859375,12.026093750000001,3.00305859375,11.88609375C3.11505859375,11.75309375,3.24805859375,11.62709375,3.40205859375,11.51509375C3.55605859375,11.40309375,3.71705859375,11.28409375,3.88505859375,11.16509375C3.96905859375,11.10209375,4.06705859375,11.03909375,4.16505859375,10.97609375C4.263058593749999,10.91309375,4.3540585937500005,10.84309375,4.43105859375,10.76609375C4.51505859375,10.68909375,4.57805859375,10.60509375,4.63405859375,10.50709375C4.69005859375,10.40909375,4.71805859375,10.30409375,4.71805859375,10.17809375C4.72505859375,10.01009375,4.66905859375,9.86309375,4.55705859375,9.751093749999999Z" fill="url(#master_svg1_590_034527)" fill-opacity="1" style="mix-blend-mode:passthrough"/></g><g><path d="M17.318105468749998,0.699951171875L10.71010546875,0.699951171875C9.80010546875,0.699951171875,9.05810546875,1.448951171875,9.05810546875,2.372951171875L9.05810546875,27.299951171875L18.97710546875,27.299951171875L18.97710546875,10.709951171875L18.97710546875,2.372951171875C18.97010546875,1.448951171875,18.22810546875,0.699951171875,17.318105468749998,0.699951171875ZM14.65810546875,6.222951171875L13.85310546875,6.222951171875L13.85310546875,3.625951171875L12.85910546875,3.625951171875L12.85910546875,3.016951171875C12.999105468749999,3.023951171875,13.13210546875,3.009951171875,13.26510546875,2.988951171875C13.39810546875,2.960951171875,13.51010546875,2.918951171875,13.61510546875,2.855951171875C13.720105468749999,2.792951171875,13.80410546875,2.708951171875,13.88110546875,2.610951171875C13.95110546875,2.505951171875,14.00010546875,2.3799511718749997,14.021105468750001,2.225951171875L14.65810546875,2.225951171875L14.65810546875,6.222951171875Z" fill="url(#master_svg2_590_034527)" fill-opacity="1" style="mix-blend-mode:passthrough"/></g><g><path d="M25.781109375,12.64208984375L22.412109375,12.64208984375C21.307540375,12.64208984375,20.412109505498,13.53752084375,20.412109666476,14.64208984375L20.41211151123,27.30008984375L25.816109375,27.30008984375C26.726109375,27.30008984375,27.468109375,26.55108984375,27.468109375,25.63408984375L27.468109375,14.336089843749999C27.468109375,13.40508984375,26.712109375,12.64208984375,25.781109375,12.64208984375ZM25.298109375,17.57008984375C25.214109375,17.73108984375,25.109109375,17.87108984375,24.969109375000002,17.98308984375C24.836109375,18.09508984375,24.675109374999998,18.17908984375,24.500109375,18.23508984375C24.325109375,18.29108984375,24.136109375,18.31908984375,23.947109375,18.31908984375C23.723109375,18.31908984375,23.520109375,18.28408984375,23.338109375000002,18.22108984375C23.156109375,18.15808984375,23.002109375,18.06008984375,22.869109375,17.94108984375C22.743109375,17.815089843750002,22.638109375,17.66808984375,22.568109375,17.48608984375C22.498109375,17.30408984375,22.463109375000002,17.10108984375,22.470109375,16.87008984375L23.233109375,16.87008984375C23.240109375,16.97508984375,23.254109375,17.08008984375,23.282109375,17.17808984375C23.310109375,17.27608984375,23.359109375,17.36008984375,23.415109375,17.43008984375C23.471109375,17.50008984375,23.541109375,17.55608984375,23.625109375,17.59808984375C23.709109375,17.64008984375,23.814109375,17.66108984375,23.926109375,17.66108984375C24.108109375,17.66108984375,24.262109375,17.60508984375,24.388109375,17.49308984375C24.514109375,17.38108984375,24.577109375,17.22708984375,24.577109375,17.03108984375C24.577109375,16.87708984375,24.549109375,16.76508984375,24.486109374999998,16.68108984375C24.430109375,16.60408984375,24.353109375,16.54108984375,24.262109375,16.50608984375C24.171109375,16.47108984375,24.073109375,16.45008984375,23.968109375,16.443089843750002C23.863109375,16.43608984375,23.758109375,16.43608984375,23.660109375,16.43608984375L23.660109375,15.86208984375C23.744109375,15.86908984375,23.842109375,15.86908984375,23.940109375,15.86208984375C24.038109375,15.855089843750001,24.129109375,15.83408984375,24.213109375000002,15.79908984375C24.297109374999998,15.76408984375,24.367109375,15.708089843749999,24.423109375,15.64508984375C24.479109375,15.57508984375,24.507109375,15.48408984375,24.507109375,15.37208984375C24.507109375,15.19708984375,24.451109375,15.07108984375,24.339109375,14.980089843750001C24.227109375,14.88908984375,24.094109375,14.84008984375,23.947109375,14.84008984375C23.744109375,14.84008984375,23.590109375,14.91008984375,23.485109375,15.04308984375C23.380109375,15.176089843749999,23.331109375,15.35108984375,23.338109375000002,15.554089843749999L22.575109375,15.554089843749999C22.582109375,15.35108984375,22.617109375,15.16208984375,22.687109375,14.99408984375C22.750109375,14.826089843750001,22.848109375,14.679089843749999,22.967109375,14.56008984375C23.086109375,14.44108984375,23.226109375,14.34308984375,23.394109375,14.28008984375C23.562109375,14.21008984375,23.744109375,14.18208984375,23.947109375,14.18208984375C24.108109375,14.18208984375,24.262109375,14.20308984375,24.423109375,14.25208984375C24.584109375,14.30108984375,24.724109375,14.37108984375,24.850109375,14.46908984375C24.976109375,14.56708984375,25.081109375,14.679089843749999,25.158109375000002,14.81908984375C25.235109375,14.95908984375,25.277109375000002,15.11308984375,25.277109375000002,15.29508984375C25.277109375000002,15.49108984375,25.228109375,15.65908984375,25.137109375,15.80608984375C25.046109375,15.95308984375,24.906109375,16.05808984375,24.717109375,16.10708984375L24.717109375,16.12108984375C24.934109375,16.17008984375,25.109109375,16.27508984375,25.235109375,16.443089843750002C25.361109374999998,16.60408984375,25.424109375,16.80008984375,25.424109375,17.03108984375C25.417109375,17.22008984375,25.375109375,17.40908984375,25.298109375,17.57008984375Z" fill="url(#master_svg3_590_034527)" fill-opacity="1" style="mix-blend-mode:passthrough"/></g></g></svg>